# This file uses meters as units for non-parametric coordinates.

g default
v -3.229023 -2.335506 3.229023
v 3.229023 -2.335506 3.229023
v -3.229023 4.122536 3.229023
v 2.596405 2.583084 3.229023
v -3.229023 4.122536 -3.229023
v 2.596405 2.583084 -3.229023
v -3.229023 -2.335506 -3.229023
v 3.229023 -2.335506 -3.229023
v -3.229023 -2.335506 5.488106
v 3.229023 -2.335506 5.488106
v 2.596405 0.434681 5.488106
v -3.229023 1.974129 5.488106
v -3.229023 1.974129 -6.424938
v 2.596405 0.434681 -6.424938
v 3.229023 -2.335506 -6.424938
v -3.229023 -2.335506 -6.424938
vt 0.375000 0.000000
vt 0.625000 0.000000
vt 0.375000 0.250000
vt 0.625000 0.250000
vt 0.375000 0.500000
vt 0.625000 0.500000
vt 0.375000 0.750000
vt 0.625000 0.750000
vt 0.375000 1.000000
vt 0.625000 1.000000
vt 0.875000 0.000000
vt 0.875000 0.250000
vt 0.125000 0.000000
vt 0.125000 0.250000
vt 0.375000 0.000000
vt 0.625000 0.000000
vt 0.625000 0.250000
vt 0.375000 0.250000
vt 0.375000 0.500000
vt 0.625000 0.500000
vt 0.625000 0.750000
vt 0.375000 0.750000
vn 0.000000 0.000000 1.000000
vn 0.000000 0.000000 1.000000
vn 0.000000 0.000000 1.000000
vn 0.000000 0.000000 1.000000
vn 0.255493 0.966811 0.000000
vn 0.255493 0.966811 0.000000
vn 0.255493 0.966811 0.000000
vn 0.255493 0.966811 0.000000
vn 0.000000 0.000000 -1.000000
vn 0.000000 0.000000 -1.000000
vn 0.000000 0.000000 -1.000000
vn 0.000000 0.000000 -1.000000
vn 0.000000 -1.000000 0.000000
vn 0.000000 -1.000000 0.000000
vn 0.000000 -1.000000 0.000000
vn 0.000000 -1.000000 0.000000
vn 0.991830 0.127567 0.000000
vn 0.991830 0.127567 0.000000
vn 0.991830 0.127567 0.000000
vn 0.991830 0.127567 0.000000
vn -1.000000 0.000000 0.000000
vn -1.000000 0.000000 0.000000
vn -1.000000 0.000000 0.000000
vn -1.000000 0.000000 0.000000
vn 0.000000 -1.000000 0.000000
vn 0.000000 -1.000000 0.000000
vn 0.000000 -1.000000 0.000000
vn 0.000000 -1.000000 0.000000
vn 0.983802 0.161891 0.076980
vn 0.983802 0.161891 0.076980
vn 0.983802 0.161891 0.076980
vn 0.983802 0.161891 0.076980
vn 0.188077 0.711703 0.676835
vn 0.188077 0.711703 0.676835
vn 0.188077 0.711703 0.676835
vn 0.188077 0.711703 0.676835
vn -1.000000 0.000000 0.000000
vn -1.000000 0.000000 0.000000
vn -1.000000 0.000000 0.000000
vn -1.000000 0.000000 0.000000
vn 0.214224 0.810645 -0.544944
vn 0.214224 0.810645 -0.544943
vn 0.214224 0.810645 -0.544943
vn 0.214224 0.810645 -0.544943
vn 0.985263 0.162131 -0.054495
vn 0.985263 0.162131 -0.054495
vn 0.985263 0.162131 -0.054495
vn 0.985263 0.162131 -0.054495
vn 0.000000 -1.000000 0.000000
vn 0.000000 -1.000000 0.000000
vn 0.000000 -1.000000 0.000000
vn 0.000000 -1.000000 0.000000
vn -1.000000 0.000000 0.000000
vn -1.000000 0.000000 0.000000
vn -1.000000 0.000000 0.000000
vn -1.000000 0.000000 0.000000
s off
g Rock
f 9/15/1 10/16/2 11/17/3 12/18/4
f 3/3/5 4/4/6 6/6/7 5/5/8
f 13/19/9 14/20/10 15/21/11 16/22/12
f 7/7/13 8/8/14 2/10/15 1/9/16
f 2/2/17 8/11/18 6/12/19 4/4/20
f 7/13/21 1/1/22 3/3/23 5/14/24
f 1/1/25 2/2/26 10/16/27 9/15/28
f 2/2/29 4/4/30 11/17/31 10/16/32
f 4/4/33 3/3/34 12/18/35 11/17/36
f 3/3/37 1/1/38 9/15/39 12/18/40
f 5/5/41 6/6/42 14/20/43 13/19/44
f 6/6/45 8/8/46 15/21/47 14/20/48
f 8/8/49 7/7/50 16/22/51 15/21/52
f 7/7/53 5/5/54 13/19/55 16/22/56
