# This file uses centimeters as units for non-parametric coordinates.

mtllib mdl_MesaRedondaVacia.mtl
g default
v 0.209475 0.822104 0.090384
v -0.090384 0.822104 -0.209475
v -0.500000 0.822104 -0.319231
v -0.909616 0.822104 -0.209475
v -1.209475 0.822104 0.090384
v -1.319232 0.822104 0.500000
v -1.209475 0.822104 0.909616
v -0.909616 0.822104 1.209475
v -0.500000 0.822104 1.319231
v -0.090384 0.822104 1.209475
v 0.209475 0.822104 0.909616
v 0.319231 0.822104 0.500000
v -0.500000 0.822104 0.500000
v -0.500000 0.988477 0.500000
v 0.149815 0.988477 0.124829
v 0.209475 0.921935 0.090384
v -0.090384 0.921935 -0.209475
v -0.124829 0.988477 -0.149816
v -0.500000 0.988477 -0.250342
v -0.500000 0.921935 -0.319231
v -0.909616 0.921935 -0.209475
v -0.875171 0.988477 -0.149816
v -1.149815 0.988477 0.124829
v -1.209475 0.921935 0.090384
v -1.319232 0.921935 0.500000
v -1.250342 0.988477 0.500000
v -1.149815 0.988477 0.875171
v -1.209475 0.921935 0.909616
v -0.909616 0.921935 1.209475
v -0.875171 0.988477 1.149815
v -0.500000 0.988477 1.250342
v -0.500000 0.921935 1.319231
v -0.090384 0.921935 1.209475
v -0.124829 0.988477 1.149815
v 0.149815 0.988477 0.875171
v 0.209475 0.921935 0.909616
v 0.319231 0.921935 0.500000
v 0.250342 0.988477 0.500000
vt 0.299440 0.831812
vt 0.338937 0.842395
vt 0.299440 0.910805
vt 0.259943 0.842395
vt 0.231029 0.871308
vt 0.220446 0.910805
vt 0.231029 0.950302
vt 0.259943 0.979216
vt 0.299440 0.989799
vt 0.338937 0.979216
vt 0.367850 0.950302
vt 0.378434 0.910805
vt 0.367850 0.871308
vt 0.026676 0.595483
vt 0.078154 0.728538
vt 0.055140 0.595483
vt 0.111981 0.595483
vt 0.010463 0.595483
vt 0.026676 0.644185
vt 0.094368 0.595483
vt 0.094368 0.662010
vt 0.078154 0.595483
vt 0.094368 0.728538
vt 0.078154 0.662010
vt 0.038926 0.825940
vt 0.038926 0.777239
vt 0.055140 0.825940
vt 0.038926 0.710712
vt 0.055140 0.777239
vt 0.038926 0.644185
vt 0.055140 0.710712
vt 0.038926 0.595483
vt 0.055140 0.644185
vt 0.095767 0.728538
vt 0.095767 0.662010
vt 0.111981 0.728538
vt 0.095767 0.595483
vt 0.111981 0.662010
vt 0.010463 0.825940
vt 0.010463 0.777239
vt 0.026676 0.825940
vt 0.010463 0.710712
vt 0.026676 0.777239
vt 0.010463 0.644185
vt 0.026676 0.710712
vt 0.454372 0.724715
vt 0.521003 0.840125
vt 0.454372 0.857978
vt 0.387740 0.840125
vt 0.587634 0.724715
vt 0.569780 0.791347
vt 0.527120 0.850720
vt 0.454372 0.870213
vt 0.381623 0.850720
vt 0.338963 0.791347
vt 0.321109 0.724715
vt 0.521003 0.609307
vt 0.569780 0.658084
vt 0.580376 0.797464
vt 0.599869 0.724715
vt 0.328367 0.797464
vt 0.308874 0.724715
vt 0.338963 0.658084
vt 0.387740 0.609307
vt 0.454372 0.591453
vt 0.527120 0.598711
vt 0.580376 0.651967
vt 0.328367 0.651967
vt 0.381623 0.598711
vt 0.454372 0.579218
vn 0.000000 -0.989477 -0.144691
vn 0.072346 -0.989477 -0.125306
vn 0.000000 -1.000000 0.000000
vn -0.072346 -0.989477 -0.125306
vn -0.125306 -0.989477 -0.072346
vn -0.144691 -0.989477 0.000000
vn -0.125306 -0.989477 0.072346
vn -0.072346 -0.989477 0.125306
vn 0.000000 -0.989477 0.144691
vn 0.072346 -0.989477 0.125306
vn 0.125306 -0.989477 0.072346
vn 0.144691 -0.989477 -0.000000
vn 0.125306 -0.989477 -0.072346
vn 0.094983 0.993967 -0.054838
vn 0.811507 0.349202 -0.468524
vn 0.468524 0.349201 -0.811507
vn 0.054838 0.993967 -0.094983
vn 0.109676 0.993967 0.000000
vn 0.937047 0.349203 0.000000
vn 0.000000 0.349200 -0.937048
vn 0.000000 0.993967 -0.109676
vn -0.468524 0.349201 -0.811507
vn -0.054838 0.993967 -0.094983
vn -0.811507 0.349202 -0.468524
vn -0.094983 0.993967 -0.054838
vn -0.937047 0.349202 0.000000
vn -0.109676 0.993967 0.000000
vn -0.811507 0.349202 0.468524
vn -0.094983 0.993967 0.054838
vn -0.468524 0.349202 0.811507
vn -0.054838 0.993967 0.094983
vn 0.000000 0.349202 0.937048
vn 0.000000 0.993967 0.109676
vn 0.468524 0.349202 0.811507
vn 0.054838 0.993967 0.094983
vn 0.811507 0.349202 0.468524
vn 0.094983 0.993967 0.054838
vn 0.000000 1.000000 0.000000
s 1
g mdl_MesaRedonda_Top mdl_MesaRedonda1 Madera
usemtl lambert3SG
f 3/1/1 2/2/2 13/3/3 4/4/4
f 5/5/5 4/4/4 13/3/3 6/6/6
f 7/7/7 6/6/6 13/3/3 8/8/8
f 9/9/9 8/8/8 13/3/3 10/10/10
f 11/11/11 10/10/10 13/3/3 12/12/12
f 1/13/13 12/12/12 13/3/3 2/2/2
f 15/51/14 16/59/15 17/52/16 18/47/17
f 16/59/15 15/51/14 38/50/18 37/60/19
f 18/47/17 17/52/16 20/53/20 19/48/21
f 19/48/21 20/53/20 21/54/22 22/49/23
f 22/49/23 21/54/22 24/61/24 23/55/25
f 23/55/25 24/61/24 25/62/26 26/56/27
f 26/56/27 25/62/26 28/68/28 27/63/29
f 27/63/29 28/68/28 29/69/30 30/64/31
f 30/64/31 29/69/30 32/70/32 31/65/33
f 31/65/33 32/70/32 33/66/34 34/57/35
f 34/57/35 33/66/34 36/67/36 35/58/37
f 35/58/37 36/67/36 37/60/19 38/50/18
f 1/44/13 2/18/2 17/14/16 16/19/15
f 2/20/2 3/21/1 20/24/20 17/22/16
f 3/21/1 4/23/4 21/15/22 20/24/20
f 4/25/4 5/26/5 24/29/24 21/27/22
f 5/26/5 6/28/6 25/31/26 24/29/24
f 6/28/6 7/30/7 28/33/28 25/31/26
f 7/30/7 8/32/8 29/16/30 28/33/28
f 8/34/8 9/35/9 32/38/32 29/36/30
f 9/35/9 10/37/10 33/17/34 32/38/32
f 10/39/10 11/40/11 36/43/36 33/41/34
f 11/40/11 12/42/12 37/45/19 36/43/36
f 12/42/12 1/44/13 16/19/15 37/45/19
f 14/46/38 18/47/17 19/48/21 22/49/23
f 14/46/38 22/49/23 23/55/25 26/56/27
f 14/46/38 26/56/27 27/63/29 30/64/31
f 14/46/38 30/64/31 31/65/33 34/57/35
f 14/46/38 34/57/35 35/58/37 38/50/18
f 14/46/38 38/50/18 15/51/14 18/47/17
g default
v -0.998825 -0.000000 0.950139
v -1.044550 -0.000000 0.995863
v -0.996705 0.822104 0.908825
v -1.042430 0.822104 0.954550
v -0.882541 0.822104 1.022990
v -0.928265 0.822104 1.068714
v -0.923854 -0.000000 1.025110
v -0.969579 -0.000000 1.070834
v -0.973006 0.436738 0.885126
v -0.858842 0.436738 0.999291
v -0.904566 0.436738 1.045015
v -1.018731 0.436738 0.930850
v -0.973006 0.628157 0.885126
v -0.858842 0.628157 0.999291
v -0.904566 0.628157 1.045015
v -1.018731 0.628157 0.930850
vt 0.235651 0.596588
vt 0.254249 0.596588
vt 0.243747 0.708471
vt 0.225149 0.708471
vt 0.219149 0.708471
vt 0.200550 0.708471
vt 0.174106 0.596588
vt 0.192705 0.596588
vt 0.134586 0.596588
vt 0.165080 0.596588
vt 0.191524 0.708471
vt 0.145087 0.708471
vt 0.279568 0.596588
vt 0.310062 0.596588
vt 0.299560 0.708471
vt 0.253124 0.708471
vt 0.299560 0.757509
vt 0.253124 0.757509
vt 0.219149 0.757509
vt 0.200550 0.757509
vt 0.191524 0.757509
vt 0.145087 0.757509
vt 0.243747 0.757509
vt 0.225149 0.757509
vt 0.309200 0.807194
vt 0.262764 0.807194
vt 0.209509 0.807194
vt 0.190911 0.807194
vt 0.135448 0.807194
vt 0.181884 0.807194
vt 0.234789 0.807194
vt 0.253387 0.807194
vn -0.705687 -0.063330 -0.705688
vn -0.705687 -0.063330 -0.705688
vn -0.706382 -0.045245 -0.706383
vn -0.706460 -0.042748 -0.706461
vn 0.706460 -0.042747 0.706461
vn 0.706382 -0.045245 0.706383
vn 0.705687 -0.063330 0.705688
vn 0.705687 -0.063330 0.705688
vn -0.699582 0.145498 0.699582
vn -0.699582 0.145498 0.699582
vn -0.703950 0.094388 0.703950
vn -0.703950 0.094388 0.703950
vn 0.699582 -0.145498 -0.699582
vn 0.699582 -0.145498 -0.699582
vn 0.703950 -0.094388 -0.703950
vn 0.703950 -0.094388 -0.703950
vn 0.704448 0.086644 -0.704448
vn 0.704447 0.086644 -0.704448
vn 0.707106 0.000000 0.707107
vn 0.707106 0.000000 0.707107
vn -0.704448 -0.086644 0.704448
vn -0.704448 -0.086644 0.704448
vn -0.707106 -0.000000 -0.707107
vn -0.707106 -0.000000 -0.707107
vn 0.696779 0.170283 -0.696780
vn 0.696779 0.170284 -0.696780
vn 0.707106 0.000000 0.707107
vn 0.707106 0.000000 0.707107
vn -0.696779 -0.170284 0.696780
vn -0.696779 -0.170284 0.696780
vn -0.707107 -0.000000 -0.707107
vn -0.707107 -0.000000 -0.707107
s 1
g mdl_MesaRedonda1 Madera mdl_MesaRedonda_Pata1
usemtl lambert3SG
f 39/71/39 40/72/40 50/73/41 47/74/42
s 2
f 48/75/43 49/76/44 46/77/45 45/78/46
s 3
f 40/79/47 46/80/48 49/81/49 50/82/50
s 4
f 45/83/51 39/84/52 47/85/53 48/86/54
f 48/86/54 47/85/53 51/87/55 52/88/56
s 2
f 52/89/57 53/90/58 49/76/44 48/75/43
s 3
f 50/82/50 49/81/49 53/91/59 54/92/60
s 1
f 47/74/42 50/73/41 54/93/61 51/94/62
s 4
f 52/88/56 51/87/55 41/95/63 43/96/64
s 2
f 53/90/58 52/89/57 43/97/65 44/98/66
s 3
f 42/99/67 54/92/60 53/91/59 44/100/68
s 1
f 41/101/69 51/94/62 54/93/61 42/102/70
g default
v -0.950139 -0.000000 0.001175
v -0.995864 -0.000000 -0.044550
v -0.908825 0.822104 0.003295
v -0.954550 0.822104 -0.042430
v -1.022990 0.822104 0.117459
v -1.068714 0.822104 0.071735
v -1.025110 -0.000000 0.076146
v -1.070834 -0.000000 0.030421
v -0.885126 0.436738 0.026994
v -0.999291 0.436738 0.141158
v -1.045015 0.436738 0.095434
v -0.930850 0.436738 -0.018731
v -0.885126 0.628157 0.026994
v -0.999291 0.628157 0.141158
v -1.045015 0.628157 0.095434
v -0.930850 0.628157 -0.018731
vt 0.235651 0.596588
vt 0.254249 0.596588
vt 0.243747 0.708471
vt 0.225149 0.708471
vt 0.219149 0.708471
vt 0.200550 0.708471
vt 0.174106 0.596588
vt 0.192705 0.596588
vt 0.134586 0.596588
vt 0.165080 0.596588
vt 0.191524 0.708471
vt 0.145087 0.708471
vt 0.279568 0.596588
vt 0.310062 0.596588
vt 0.299560 0.708471
vt 0.253124 0.708471
vt 0.299560 0.757509
vt 0.253124 0.757509
vt 0.219149 0.757509
vt 0.200550 0.757509
vt 0.191524 0.757509
vt 0.145087 0.757509
vt 0.243747 0.757509
vt 0.225149 0.757509
vt 0.309200 0.807194
vt 0.262764 0.807194
vt 0.209509 0.807194
vt 0.190911 0.807194
vt 0.135448 0.807194
vt 0.181884 0.807194
vt 0.234789 0.807194
vt 0.253387 0.807194
vn 0.705688 -0.063330 -0.705687
vn 0.705688 -0.063330 -0.705687
vn 0.706383 -0.045245 -0.706382
vn 0.706461 -0.042748 -0.706460
vn -0.706461 -0.042747 0.706460
vn -0.706383 -0.045245 0.706382
vn -0.705688 -0.063330 0.705687
vn -0.705688 -0.063330 0.705687
vn -0.699582 0.145498 -0.699582
vn -0.699582 0.145498 -0.699582
vn -0.703950 0.094388 -0.703950
vn -0.703950 0.094388 -0.703950
vn 0.699582 -0.145498 0.699582
vn 0.699582 -0.145498 0.699582
vn 0.703950 -0.094388 0.703950
vn 0.703950 -0.094388 0.703950
vn 0.704448 0.086644 0.704448
vn 0.704448 0.086644 0.704448
vn -0.707107 0.000000 0.707106
vn -0.707107 0.000000 0.707106
vn -0.704448 -0.086644 -0.704448
vn -0.704448 -0.086644 -0.704448
vn 0.707107 -0.000000 -0.707106
vn 0.707107 -0.000000 -0.707106
vn 0.696780 0.170283 0.696779
vn 0.696780 0.170283 0.696779
vn -0.707107 0.000000 0.707106
vn -0.707107 0.000000 0.707106
vn -0.696780 -0.170283 -0.696780
vn -0.696780 -0.170283 -0.696780
vn 0.707107 -0.000000 -0.707107
vn 0.707107 -0.000000 -0.707107
s 1
g mdl_MesaRedonda1 Madera mdl_MesaRedonda_Pata2
usemtl lambert3SG
f 55/103/71 56/104/72 66/105/73 63/106/74
s 2
f 64/107/75 65/108/76 62/109/77 61/110/78
s 3
f 56/111/79 62/112/80 65/113/81 66/114/82
s 4
f 61/115/83 55/116/84 63/117/85 64/118/86
f 64/118/86 63/117/85 67/119/87 68/120/88
s 2
f 68/121/89 69/122/90 65/108/76 64/107/75
s 3
f 66/114/82 65/113/81 69/123/91 70/124/92
s 1
f 63/106/74 66/105/73 70/125/93 67/126/94
s 4
f 68/120/88 67/119/87 57/127/95 59/128/96
s 2
f 69/122/90 68/121/89 59/129/97 60/130/98
s 3
f 58/131/99 70/124/92 69/123/91 60/132/100
s 1
f 57/133/101 67/126/94 70/125/93 58/134/102
g default
v -0.049861 -0.000000 0.998825
v -0.004136 -0.000000 1.044550
v -0.091175 0.822104 0.996706
v -0.045450 0.822104 1.042430
v 0.022990 0.822104 0.882541
v 0.068714 0.822104 0.928265
v 0.025110 -0.000000 0.923855
v 0.070834 -0.000000 0.969579
v -0.114874 0.436738 0.973006
v -0.000709 0.436738 0.858842
v 0.045015 0.436738 0.904566
v -0.069150 0.436738 1.018731
v -0.114874 0.628157 0.973006
v -0.000709 0.628157 0.858842
v 0.045015 0.628157 0.904566
v -0.069150 0.628157 1.018731
vt 0.235651 0.596588
vt 0.254249 0.596588
vt 0.243747 0.708471
vt 0.225149 0.708471
vt 0.219149 0.708471
vt 0.200550 0.708471
vt 0.174106 0.596588
vt 0.192705 0.596588
vt 0.134586 0.596588
vt 0.165080 0.596588
vt 0.191524 0.708471
vt 0.145087 0.708471
vt 0.279568 0.596588
vt 0.310062 0.596588
vt 0.299560 0.708471
vt 0.253124 0.708471
vt 0.299560 0.757509
vt 0.253124 0.757509
vt 0.219149 0.757509
vt 0.200550 0.757509
vt 0.191524 0.757509
vt 0.145087 0.757509
vt 0.243747 0.757509
vt 0.225149 0.757509
vt 0.309200 0.807194
vt 0.262764 0.807194
vt 0.209509 0.807194
vt 0.190911 0.807194
vt 0.135448 0.807194
vt 0.181884 0.807194
vt 0.234789 0.807194
vt 0.253387 0.807194
vn -0.705688 -0.063330 0.705687
vn -0.705688 -0.063330 0.705687
vn -0.706383 -0.045245 0.706382
vn -0.706461 -0.042748 0.706460
vn 0.706461 -0.042747 -0.706460
vn 0.706383 -0.045245 -0.706382
vn 0.705688 -0.063330 -0.705687
vn 0.705688 -0.063330 -0.705687
vn 0.699582 0.145498 0.699582
vn 0.699582 0.145498 0.699582
vn 0.703950 0.094388 0.703950
vn 0.703950 0.094388 0.703950
vn -0.699582 -0.145498 -0.699582
vn -0.699582 -0.145498 -0.699582
vn -0.703950 -0.094388 -0.703950
vn -0.703950 -0.094388 -0.703950
vn -0.704448 0.086644 -0.704448
vn -0.704448 0.086644 -0.704448
vn 0.707107 0.000000 -0.707106
vn 0.707107 0.000000 -0.707107
vn 0.704448 -0.086644 0.704448
vn 0.704448 -0.086644 0.704448
vn -0.707107 -0.000000 0.707106
vn -0.707107 -0.000000 0.707106
vn -0.696780 0.170283 -0.696779
vn -0.696780 0.170283 -0.696779
vn 0.707107 0.000000 -0.707107
vn 0.707107 0.000000 -0.707107
vn 0.696780 -0.170284 0.696780
vn 0.696780 -0.170283 0.696779
vn -0.707107 -0.000000 0.707107
vn -0.707107 -0.000000 0.707107
s 1
g mdl_MesaRedonda1 Madera mdl_MesaRedonda_Pata3
usemtl lambert3SG
f 71/135/103 72/136/104 82/137/105 79/138/106
s 2
f 80/139/107 81/140/108 78/141/109 77/142/110
s 3
f 72/143/111 78/144/112 81/145/113 82/146/114
s 4
f 77/147/115 71/148/116 79/149/117 80/150/118
f 80/150/118 79/149/117 83/151/119 84/152/120
s 2
f 84/153/121 85/154/122 81/140/108 80/139/107
s 3
f 82/146/114 81/145/113 85/155/123 86/156/124
s 1
f 79/138/106 82/137/105 86/157/125 83/158/126
s 4
f 84/152/120 83/151/119 73/159/127 75/160/128
s 2
f 85/154/122 84/153/121 75/161/129 76/162/130
s 3
f 74/163/131 86/156/124 85/155/123 76/164/132
s 1
f 73/165/133 83/158/126 86/157/125 74/166/134
g default
v -0.001175 -0.000000 0.049861
v 0.044550 -0.000000 0.004136
v -0.003295 0.822104 0.091175
v 0.042430 0.822104 0.045450
v -0.117459 0.822104 -0.022990
v -0.071735 0.822104 -0.068714
v -0.076146 -0.000000 -0.025110
v -0.030421 -0.000000 -0.070834
v -0.026994 0.436738 0.114874
v -0.141158 0.436738 0.000709
v -0.095434 0.436738 -0.045015
v 0.018731 0.436738 0.069150
v -0.026994 0.628157 0.114874
v -0.141158 0.628157 0.000709
v -0.095434 0.628157 -0.045015
v 0.018731 0.628157 0.069150
vt 0.235651 0.596588
vt 0.254249 0.596588
vt 0.243747 0.708471
vt 0.225149 0.708471
vt 0.219149 0.708471
vt 0.200550 0.708471
vt 0.174106 0.596588
vt 0.192705 0.596588
vt 0.134586 0.596588
vt 0.165080 0.596588
vt 0.191524 0.708471
vt 0.145087 0.708471
vt 0.279568 0.596588
vt 0.310062 0.596588
vt 0.299560 0.708471
vt 0.253124 0.708471
vt 0.299560 0.757509
vt 0.253124 0.757509
vt 0.219149 0.757509
vt 0.200550 0.757509
vt 0.191524 0.757509
vt 0.145087 0.757509
vt 0.243747 0.757509
vt 0.225149 0.757509
vt 0.309200 0.807194
vt 0.262764 0.807194
vt 0.209509 0.807194
vt 0.190911 0.807194
vt 0.135448 0.807194
vt 0.181884 0.807194
vt 0.234789 0.807194
vt 0.253387 0.807194
vn 0.705687 -0.063330 0.705688
vn 0.705687 -0.063330 0.705688
vn 0.706382 -0.045245 0.706383
vn 0.706460 -0.042748 0.706461
vn -0.706460 -0.042747 -0.706461
vn -0.706382 -0.045245 -0.706383
vn -0.705687 -0.063330 -0.705688
vn -0.705687 -0.063330 -0.705688
vn 0.699582 0.145498 -0.699582
vn 0.699582 0.145498 -0.699582
vn 0.703950 0.094388 -0.703950
vn 0.703950 0.094388 -0.703950
vn -0.699582 -0.145498 0.699582
vn -0.699582 -0.145498 0.699582
vn -0.703950 -0.094388 0.703950
vn -0.703950 -0.094388 0.703950
vn -0.704448 0.086644 0.704448
vn -0.704448 0.086644 0.704448
vn -0.707106 0.000000 -0.707107
vn -0.707106 0.000000 -0.707107
vn 0.704448 -0.086644 -0.704448
vn 0.704448 -0.086644 -0.704448
vn 0.707106 -0.000000 0.707107
vn 0.707106 -0.000000 0.707107
vn -0.696779 0.170283 0.696780
vn -0.696779 0.170284 0.696780
vn -0.707106 0.000000 -0.707107
vn -0.707106 0.000000 -0.707107
vn 0.696779 -0.170284 -0.696780
vn 0.696779 -0.170284 -0.696780
vn 0.707107 -0.000000 0.707107
vn 0.707107 -0.000000 0.707107
s 1
g mdl_MesaRedonda1 Madera mdl_MesaRedonda_Pata4
usemtl lambert3SG
f 87/167/135 88/168/136 98/169/137 95/170/138
s 2
f 96/171/139 97/172/140 94/173/141 93/174/142
s 3
f 88/175/143 94/176/144 97/177/145 98/178/146
s 4
f 93/179/147 87/180/148 95/181/149 96/182/150
f 96/182/150 95/181/149 99/183/151 100/184/152
s 2
f 100/185/153 101/186/154 97/172/140 96/171/139
s 3
f 98/178/146 97/177/145 101/187/155 102/188/156
s 1
f 95/170/138 98/169/137 102/189/157 99/190/158
s 4
f 100/184/152 99/183/151 89/191/159 91/192/160
s 2
f 101/186/154 100/185/153 91/193/161 92/194/162
s 3
f 90/195/163 102/188/156 101/187/155 92/196/164
s 1
f 89/197/165 99/190/158 102/189/157 90/198/166
