# This file uses centimeters as units for non-parametric coordinates.

mtllib mdl_Silla.mtl
g default
v -0.251881 0.432356 -0.262505
v -0.275269 0.455744 -0.285893
v -0.275269 0.455744 0.285894
v -0.251881 0.432356 0.262505
v -0.275269 0.502529 -0.285893
v -0.251881 0.525917 -0.262505
v -0.251881 0.525917 0.262505
v -0.275269 0.502529 0.285894
v 0.273129 0.525917 -0.262505
v 0.296518 0.502529 -0.285893
v 0.273129 0.525917 0.262505
v 0.296518 0.502529 0.285894
v 0.296518 0.455744 -0.285893
v 0.273129 0.432356 -0.262505
v 0.273129 0.432356 0.262505
v 0.296518 0.455744 0.285894
vt 0.792818 0.048042
vt 0.798561 0.042298
vt 0.798561 0.182716
vt 0.792818 0.176972
vt 0.754761 0.341920
vt 0.749017 0.347663
vt 0.620087 0.347663
vt 0.614343 0.341919
vt 0.706564 0.329043
vt 0.700820 0.323300
vt 0.700820 0.194369
vt 0.706564 0.188626
vt 0.810051 0.042298
vt 0.815794 0.048042
vt 0.815794 0.176972
vt 0.810051 0.182716
vt 0.658130 0.047537
vt 0.652387 0.041794
vt 0.792804 0.041794
vt 0.787061 0.047537
vt 0.723797 0.323300
vt 0.718053 0.329043
vt 0.718053 0.188626
vt 0.723797 0.194369
vt 0.652387 0.182211
vt 0.658130 0.176468
vt 0.787061 0.176468
vt 0.792804 0.182211
vt 0.749017 0.476594
vt 0.754760 0.482337
vt 0.614343 0.482337
vt 0.620086 0.476593
vt 0.595618 0.459792
vt 0.595618 0.319375
vt 0.607108 0.319375
vt 0.607108 0.459792
vt 0.637890 0.182211
vt 0.637890 0.041794
vt 0.649379 0.041794
vt 0.649379 0.182211
vn -0.000000 -0.707107 -0.707107
vn -0.000000 -0.707107 -0.707107
vn -0.000000 -0.707107 -0.707107
vn -0.000000 -0.707107 -0.707107
vn -0.707107 -0.707106 0.000000
vn -0.707107 -0.707106 0.000000
vn -0.707107 -0.707106 0.000000
vn -0.707107 -0.707106 0.000000
vn 0.000000 -0.707106 0.707108
vn 0.000000 -0.707106 0.707108
vn 0.000000 -0.707106 0.707108
vn 0.000000 -0.707106 0.707108
vn -0.000000 0.707107 -0.707107
vn -0.000000 0.707107 -0.707107
vn -0.000000 0.707107 -0.707107
vn -0.000000 0.707107 -0.707107
vn -0.707108 0.707106 0.000000
vn -0.707108 0.707106 0.000000
vn -0.707108 0.707106 0.000000
vn -0.707108 0.707106 0.000000
vn 0.000000 0.707106 0.707108
vn 0.000000 0.707106 0.707108
vn 0.000000 0.707106 0.707108
vn 0.000000 0.707106 0.707108
vn 0.707108 0.707106 -0.000000
vn 0.707108 0.707106 -0.000000
vn 0.707108 0.707106 -0.000000
vn 0.707108 0.707106 -0.000000
vn 0.707108 -0.707106 -0.000000
vn 0.707108 -0.707106 -0.000000
vn 0.707108 -0.707106 -0.000000
vn 0.707108 -0.707106 -0.000000
vn -1.000000 0.000000 0.000000
vn -1.000000 0.000000 0.000000
vn -1.000000 0.000000 0.000000
vn -1.000000 0.000000 0.000000
vn 0.000000 1.000000 0.000000
vn 0.000000 1.000000 0.000000
vn 0.000000 1.000000 0.000000
vn 0.000000 1.000000 0.000000
vn 1.000000 0.000000 -0.000000
vn 1.000000 0.000000 -0.000000
vn 1.000000 0.000000 -0.000000
vn 1.000000 0.000000 -0.000000
vn 0.000000 -1.000000 0.000000
vn 0.000000 -1.000000 0.000000
vn 0.000000 -1.000000 0.000000
vn 0.000000 -1.000000 0.000000
vn 0.000000 0.000000 1.000000
vn 0.000000 0.000000 1.000000
vn 0.000000 0.000000 1.000000
vn 0.000000 0.000000 1.000000
vn -0.000000 0.000000 -1.000000
vn -0.000000 0.000000 -1.000000
vn -0.000000 0.000000 -1.000000
vn -0.000000 0.000000 -1.000000
s off
g polySurface1 mdl_Silla Madera
usemtl lambert3SG
f 1/1/1 2/2/2 13/3/3 14/4/4
f 2/5/5 1/6/6 4/7/7 3/8/8
f 3/9/9 4/10/10 15/11/11 16/12/12
f 5/13/13 6/14/14 9/15/15 10/16/16
f 6/17/17 5/18/18 8/19/19 7/20/20
f 7/21/21 8/22/22 12/23/23 11/24/24
f 10/25/25 9/26/26 11/27/27 12/28/28
f 14/29/29 13/30/30 16/31/31 15/32/32
f 2/33/33 3/34/34 8/35/35 5/36/36
f 6/17/37 7/20/38 11/27/39 9/26/40
f 10/37/41 12/38/42 16/39/43 13/40/44
f 14/29/45 15/32/46 4/7/47 1/6/48
f 3/9/49 16/12/50 12/23/51 8/22/52
f 13/3/53 2/2/54 5/13/55 10/16/56
g default
v 0.214618 0.000000 0.203007
v 0.214618 0.000000 0.288896
v 0.185072 0.432356 0.176617
v 0.185072 0.432356 0.262505
v 0.273129 0.432356 0.176617
v 0.273129 0.432356 0.262505
v 0.302676 0.000000 0.203007
v 0.302676 0.000000 0.288896
v 0.185072 0.216178 0.262505
v 0.185072 0.216178 0.176617
v 0.273129 0.216178 0.176617
v 0.273129 0.216178 0.262505
vt 0.471232 0.329220
vt 0.492324 0.329220
vt 0.485843 0.382308
vt 0.464751 0.382308
vt 0.600800 0.234242
vt 0.621893 0.234242
vt 0.621893 0.255867
vt 0.600800 0.255867
vt 0.770521 0.534272
vt 0.791613 0.534272
vt 0.798094 0.587360
vt 0.777002 0.587360
vt 0.365629 0.498027
vt 0.386722 0.498027
vt 0.386722 0.519652
vt 0.365629 0.519652
vt 0.765855 0.589317
vt 0.787480 0.589317
vt 0.780224 0.642405
vt 0.758599 0.642405
vt 0.791181 0.589317
vt 0.812806 0.589317
vt 0.820062 0.642405
vt 0.798437 0.642405
vt 0.485843 0.435397
vt 0.464751 0.435397
vt 0.820062 0.695493
vt 0.798437 0.695493
vt 0.770521 0.481184
vt 0.791613 0.481184
vt 0.780224 0.695493
vt 0.758599 0.695493
vn -0.990789 -0.135419 0.000000
vn -0.990788 -0.135419 0.000000
vn -0.997499 -0.070683 0.000000
vn -0.997854 -0.065475 0.000000
vn 0.000000 1.000000 0.000000
vn 0.000000 1.000000 0.000000
vn 0.000000 1.000000 0.000000
vn 0.000000 1.000000 0.000000
vn 0.997854 0.065475 -0.000000
vn 0.997499 0.070683 -0.000000
vn 0.990789 0.135419 -0.000000
vn 0.990788 0.135419 -0.000000
vn 0.000000 -1.000000 0.000000
vn 0.000000 -1.000000 0.000000
vn 0.000000 -1.000000 0.000000
vn 0.000000 -1.000000 0.000000
vn 0.000000 0.121179 0.992631
vn 0.000000 0.121179 0.992631
vn 0.000000 0.063424 0.997987
vn 0.000000 0.058203 0.998305
vn -0.000000 -0.121179 -0.992631
vn -0.000000 -0.121179 -0.992631
vn -0.000000 -0.058203 -0.998305
vn -0.000000 -0.063424 -0.997987
vn -1.000000 0.000000 0.000000
vn -1.000000 0.000000 0.000000
vn -0.000000 0.000000 -1.000000
vn -0.000000 0.000000 -1.000000
vn 1.000000 0.000000 -0.000000
vn 1.000000 0.000000 -0.000000
vn 0.000000 0.000000 1.000000
vn 0.000000 0.000000 1.000000
s 1
g mdl_Silla Madera polySurface2
usemtl lambert3SG
f 17/41/57 18/42/58 25/43/59 26/44/60
s off
f 19/45/61 20/46/62 22/47/63 21/48/64
s 2
f 27/49/65 28/50/66 24/51/67 23/52/68
s off
f 23/53/69 24/54/70 18/55/71 17/56/72
s 3
f 18/57/73 24/58/74 28/59/75 25/60/76
s 4
f 23/61/77 17/62/78 26/63/79 27/64/80
s 1
f 26/44/60 25/43/59 20/65/81 19/66/82
s 4
f 27/64/80 26/63/79 19/67/83 21/68/84
s 2
f 21/69/85 22/70/86 28/50/66 27/49/65
s 3
f 25/60/76 28/59/75 22/71/87 20/72/88
g default
v 0.214618 0.000000 -0.203007
v 0.214618 0.000000 -0.288896
v 0.185072 0.432356 -0.176616
v 0.185072 0.432356 -0.262505
v 0.273129 0.432356 -0.176616
v 0.273129 0.432356 -0.262505
v 0.302676 0.000000 -0.203007
v 0.302676 0.000000 -0.288896
v 0.185072 0.216178 -0.262505
v 0.185072 0.216178 -0.176616
v 0.273129 0.216178 -0.176616
v 0.273129 0.216178 -0.262505
vt 0.440651 0.435396
vt 0.434170 0.382308
vt 0.455262 0.382308
vt 0.461743 0.435396
vt 0.603483 0.282693
vt 0.603483 0.261068
vt 0.624575 0.261068
vt 0.624575 0.282693
vt 0.801102 0.534272
vt 0.807583 0.481184
vt 0.828675 0.481184
vt 0.822194 0.534272
vt 0.396926 0.522335
vt 0.396926 0.500710
vt 0.418018 0.500710
vt 0.418018 0.522335
vt 0.484909 0.450035
vt 0.492165 0.503123
vt 0.470540 0.503123
vt 0.463284 0.450035
vt 0.459584 0.450035
vt 0.452327 0.503123
vt 0.430703 0.503123
vt 0.437959 0.450035
vt 0.434170 0.329220
vt 0.455262 0.329220
vt 0.452327 0.556211
vt 0.430703 0.556211
vt 0.801102 0.587360
vt 0.822194 0.587360
vt 0.492165 0.556211
vt 0.470540 0.556211
vn -0.990788 -0.135419 0.000000
vn -0.997854 -0.065475 0.000000
vn -0.997499 -0.070683 0.000000
vn -0.990788 -0.135419 0.000000
vn 0.000000 1.000000 0.000000
vn 0.000000 1.000000 0.000000
vn 0.000000 1.000000 0.000000
vn 0.000000 1.000000 0.000000
vn 0.997854 0.065475 -0.000000
vn 0.990788 0.135419 -0.000000
vn 0.990789 0.135419 -0.000000
vn 0.997499 0.070683 -0.000000
vn 0.000000 -1.000000 0.000000
vn 0.000000 -1.000000 0.000000
vn 0.000000 -1.000000 0.000000
vn 0.000000 -1.000000 0.000000
vn -0.000000 0.121181 -0.992630
vn -0.000000 0.058204 -0.998305
vn -0.000000 0.063424 -0.997987
vn -0.000000 0.121181 -0.992630
vn 0.000000 -0.121182 0.992630
vn 0.000000 -0.063425 0.997987
vn 0.000000 -0.058204 0.998305
vn 0.000000 -0.121182 0.992630
vn -1.000000 0.000000 0.000000
vn -1.000000 0.000000 0.000000
vn 0.000000 0.000000 1.000000
vn 0.000000 0.000000 1.000000
vn 1.000000 0.000000 -0.000000
vn 1.000000 0.000000 -0.000000
vn -0.000000 0.000000 -1.000000
vn -0.000000 0.000000 -1.000000
s 1
g mdl_Silla Madera polySurface3
usemtl lambert3SG
f 29/73/89 38/74/90 37/75/91 30/76/92
s off
f 31/77/93 33/78/94 34/79/95 32/80/96
s 2
f 39/81/97 35/82/98 36/83/99 40/84/100
s off
f 35/85/101 29/86/102 30/87/103 36/88/104
s 3
f 30/89/105 37/90/106 40/91/107 36/92/108
s 4
f 35/93/109 39/94/110 38/95/111 29/96/112
s 1
f 38/74/90 31/97/113 32/98/114 37/75/91
s 4
f 39/94/110 33/99/115 31/100/116 38/95/111
s 2
f 33/101/117 39/81/97 40/84/100 34/102/118
s 3
f 37/90/106 32/103/119 34/104/120 40/91/107
g default
v -0.193370 0.000000 0.203007
v -0.193370 0.000000 0.288896
v -0.214618 1.155939 0.176617
v -0.214618 1.155939 0.262505
v -0.302676 1.155939 0.176617
v -0.302676 1.155939 0.262505
v -0.281428 0.000000 0.203007
v -0.281428 0.000000 0.288896
v -0.163824 0.216178 0.262505
v -0.163824 0.216178 0.176617
v -0.251881 0.216178 0.176617
v -0.251881 0.216178 0.262505
v -0.163824 0.720818 0.176617
v -0.163824 0.720818 0.262505
v -0.251881 0.720818 0.262505
v -0.251881 0.720818 0.176617
vt 0.765080 0.479227
vt 0.758599 0.426139
vt 0.779691 0.426139
vt 0.786172 0.479227
vt 0.590964 0.196851
vt 0.590964 0.175226
vt 0.612056 0.175226
vt 0.612056 0.196851
vt 0.493781 0.078162
vt 0.500262 0.025074
vt 0.521354 0.025074
vt 0.514874 0.078162
vt 0.607954 0.313095
vt 0.607954 0.291470
vt 0.629046 0.291470
vt 0.629046 0.313095
vt 0.847643 0.195355
vt 0.854899 0.248443
vt 0.833274 0.248443
vt 0.826018 0.195355
vt 0.591456 0.025074
vt 0.584200 0.078162
vt 0.562575 0.078162
vt 0.569831 0.025074
vt 0.758599 0.302211
vt 0.779691 0.302211
vt 0.584200 0.202090
vt 0.562575 0.202090
vt 0.493781 0.202090
vt 0.514874 0.202090
vt 0.854899 0.372371
vt 0.833274 0.372371
vt 0.758599 0.195355
vt 0.779691 0.195355
vt 0.842425 0.479227
vt 0.820800 0.479227
vt 0.493781 0.308946
vt 0.514874 0.308946
vt 0.596674 0.308946
vt 0.575049 0.308946
vn 0.990788 -0.135419 -0.000000
vn 0.999251 -0.038711 -0.000000
vn 0.999071 -0.043100 -0.000000
vn 0.990788 -0.135419 -0.000000
vn 0.000000 1.000000 0.000000
vn 0.000000 1.000000 0.000000
vn 0.000000 1.000000 0.000000
vn 0.000000 1.000000 0.000000
vn -0.999251 0.038711 0.000000
vn -0.990789 0.135419 0.000000
vn -0.990788 0.135419 0.000000
vn -0.999071 0.043100 0.000000
vn 0.000000 -1.000000 0.000000
vn 0.000000 -1.000000 0.000000
vn 0.000000 -1.000000 0.000000
vn 0.000000 -1.000000 0.000000
vn 0.000000 0.121179 0.992631
vn 0.000000 0.034333 0.999410
vn 0.000000 0.038728 0.999250
vn 0.000000 0.121179 0.992631
vn -0.000000 -0.121180 -0.992631
vn -0.000000 -0.038729 -0.999250
vn -0.000000 -0.034334 -0.999410
vn -0.000000 -0.121180 -0.992631
vn 0.998542 0.053972 -0.000000
vn 0.998542 0.053972 -0.000000
vn -0.000000 0.000000 -1.000000
vn -0.000000 0.000000 -1.000000
vn -0.998542 -0.053972 0.000000
vn -0.998542 -0.053972 0.000000
vn 0.000000 0.000000 1.000000
vn 0.000000 0.000000 1.000000
vn 0.993255 0.115950 -0.000000
vn 0.993255 0.115950 -0.000000
vn 0.000000 0.000000 1.000000
vn 0.000000 0.000000 1.000000
vn -0.993255 -0.115950 0.000000
vn -0.993255 -0.115950 0.000000
vn -0.000000 0.000000 -1.000000
vn -0.000000 0.000000 -1.000000
s 1
g mdl_Silla Madera polySurface4
usemtl lambert3SG
f 41/105/121 50/106/122 49/107/123 42/108/124
s off
f 43/109/125 45/110/126 46/111/127 44/112/128
s 2
f 51/113/129 47/114/130 48/115/131 52/116/132
s off
f 47/117/133 41/118/134 42/119/135 48/120/136
s 3
f 42/121/137 49/122/138 52/123/139 48/124/140
s 4
f 47/125/141 51/126/142 50/127/143 41/128/144
s 1
f 50/106/122 53/129/145 54/130/146 49/107/123
s 4
f 51/126/142 56/131/147 53/132/148 50/127/143
s 2
f 56/133/149 51/113/129 52/116/132 55/134/150
s 3
f 49/122/138 54/135/151 55/136/152 52/123/139
s 1
f 53/129/145 43/137/153 44/138/154 54/130/146
s 3
f 55/136/152 54/135/151 44/139/155 46/140/156
s 2
f 45/141/157 56/133/149 55/134/150 46/142/158
s 4
f 53/132/148 56/131/147 45/143/159 43/144/160
g default
v -0.193370 0.000000 -0.203007
v -0.193370 0.000000 -0.288896
v -0.214618 1.155939 -0.176616
v -0.214618 1.155939 -0.262505
v -0.302676 1.155939 -0.176616
v -0.302676 1.155939 -0.262505
v -0.281428 0.000000 -0.203007
v -0.281428 0.000000 -0.288896
v -0.163824 0.216178 -0.262505
v -0.163824 0.216178 -0.176616
v -0.251881 0.216178 -0.176616
v -0.251881 0.216178 -0.262505
v -0.163824 0.720818 -0.262505
v -0.163824 0.720818 -0.176616
v -0.251881 0.720818 -0.176616
v -0.251881 0.720818 -0.262505
vt 0.795751 0.195355
vt 0.816843 0.195355
vt 0.810362 0.248443
vt 0.789270 0.248443
vt 0.594541 0.204734
vt 0.615633 0.204734
vt 0.615633 0.226359
vt 0.594541 0.226359
vt 0.463111 0.255857
vt 0.484203 0.255857
vt 0.490684 0.308946
vt 0.469592 0.308946
vt 0.325391 0.496239
vt 0.346483 0.496239
vt 0.346483 0.517864
vt 0.325391 0.517864
vt 0.865320 0.195355
vt 0.886945 0.195355
vt 0.879689 0.248443
vt 0.858064 0.248443
vt 0.530530 0.025074
vt 0.552155 0.025074
vt 0.559411 0.078162
vt 0.537786 0.078162
vt 0.810362 0.372371
vt 0.789270 0.372371
vt 0.559411 0.202090
vt 0.537786 0.202090
vt 0.463111 0.131930
vt 0.484203 0.131930
vt 0.879689 0.372371
vt 0.858064 0.372371
vt 0.810362 0.479227
vt 0.789270 0.479227
vt 0.546937 0.308946
vt 0.525312 0.308946
vt 0.463111 0.025074
vt 0.484203 0.025074
vt 0.892163 0.479227
vt 0.870538 0.479227
vn 0.990788 -0.135419 -0.000000
vn 0.990788 -0.135419 -0.000000
vn 0.999071 -0.043100 -0.000000
vn 0.999251 -0.038711 -0.000000
vn 0.000000 1.000000 0.000000
vn 0.000000 1.000000 0.000000
vn 0.000000 1.000000 0.000000
vn 0.000000 1.000000 0.000000
vn -0.999251 0.038711 0.000000
vn -0.999071 0.043100 0.000000
vn -0.990788 0.135419 0.000000
vn -0.990788 0.135419 0.000000
vn 0.000000 -1.000000 0.000000
vn 0.000000 -1.000000 0.000000
vn 0.000000 -1.000000 0.000000
vn 0.000000 -1.000000 0.000000
vn -0.000000 0.121180 -0.992631
vn -0.000000 0.121180 -0.992631
vn -0.000000 0.038729 -0.999250
vn -0.000000 0.034334 -0.999410
vn 0.000000 -0.121182 0.992630
vn 0.000000 -0.121182 0.992630
vn 0.000000 -0.034334 0.999410
vn 0.000000 -0.038729 0.999250
vn 0.998542 0.053972 -0.000000
vn 0.998542 0.053972 -0.000000
vn 0.000000 0.000000 1.000000
vn 0.000000 0.000000 1.000000
vn -0.998542 -0.053972 0.000000
vn -0.998542 -0.053972 0.000000
vn -0.000000 0.000000 -1.000000
vn -0.000000 0.000000 -1.000000
vn 0.993255 0.115950 -0.000000
vn 0.993255 0.115950 -0.000000
vn 0.000000 0.000000 1.000000
vn 0.000000 0.000000 1.000000
vn -0.993255 -0.115950 0.000000
vn -0.993255 -0.115950 0.000000
vn -0.000000 0.000000 -1.000000
vn -0.000000 0.000000 -1.000000
s 1
g mdl_Silla Madera polySurface5
usemtl lambert3SG
f 57/145/161 58/146/162 65/147/163 66/148/164
s off
f 59/149/165 60/150/166 62/151/167 61/152/168
s 2
f 67/153/169 68/154/170 64/155/171 63/156/172
s off
f 63/157/173 64/158/174 58/159/175 57/160/176
s 3
f 58/161/177 64/162/178 68/163/179 65/164/180
s 4
f 63/165/181 57/166/182 66/167/183 67/168/184
s 1
f 66/148/164 65/147/163 69/169/185 70/170/186
s 4
f 67/168/184 66/167/183 70/171/187 71/172/188
s 2
f 71/173/189 72/174/190 68/154/170 67/153/169
s 3
f 65/164/180 68/163/179 72/175/191 69/176/192
s 1
f 70/170/186 69/169/185 60/177/193 59/178/194
s 4
f 71/172/188 70/171/187 59/179/195 61/180/196
s 2
f 61/181/197 62/182/198 72/174/190 71/173/189
s 3
f 69/176/192 72/175/191 62/183/199 60/184/200
g default
v -0.294332 1.109090 -0.216726
v -0.276964 1.119884 -0.236035
v -0.276964 1.119884 0.236035
v -0.294332 1.109090 0.216726
v -0.240694 1.125603 -0.236035
v -0.221800 1.120527 -0.216726
v -0.221800 1.120527 0.216726
v -0.240694 1.125603 0.236035
v -0.204664 0.942400 -0.216726
v -0.222032 0.931606 -0.236035
v -0.204664 0.942400 0.216726
v -0.222032 0.931606 0.236035
v -0.258301 0.925887 -0.236035
v -0.277196 0.930963 -0.216726
v -0.277196 0.930963 0.216726
v -0.258301 0.925887 0.236035
vt 0.518873 0.505681
vt 0.514608 0.508332
vt 0.510025 0.460691
vt 0.514665 0.461937
vt 0.644882 0.312718
vt 0.640616 0.307976
vt 0.640616 0.201530
vt 0.644882 0.196788
vt 0.526916 0.517816
vt 0.522651 0.515165
vt 0.526859 0.471421
vt 0.531499 0.470175
vt 0.505701 0.509737
vt 0.501061 0.508490
vt 0.496853 0.464746
vt 0.501118 0.462095
vt 0.658429 0.307976
vt 0.653788 0.312718
vt 0.653788 0.196788
vt 0.658429 0.201530
vt 0.540463 0.517974
vt 0.535823 0.519220
vt 0.540406 0.471579
vt 0.544671 0.474230
vt 0.734650 0.312505
vt 0.730385 0.307763
vt 0.730385 0.201317
vt 0.734650 0.196575
vt 0.748197 0.307763
vt 0.743557 0.312505
vt 0.743557 0.196575
vt 0.748197 0.201317
vt 0.875898 0.587629
vt 0.875898 0.481184
vt 0.919642 0.481184
vt 0.919642 0.587629
vt 0.539548 0.435666
vt 0.539548 0.329220
vt 0.583291 0.329220
vt 0.583291 0.435666
vn -0.722085 -0.069465 -0.688308
vn -0.722085 -0.069465 -0.688308
vn -0.722085 -0.069465 -0.688308
vn -0.722085 -0.069465 -0.688308
vn -0.527858 0.849333 0.000000
vn -0.527858 0.849333 0.000000
vn -0.527858 0.849333 0.000000
vn -0.527858 0.849333 0.000000
vn -0.722084 -0.069465 0.688309
vn -0.722084 -0.069465 0.688309
vn -0.722084 -0.069465 0.688309
vn -0.722084 -0.069465 0.688309
vn 0.722085 0.069465 -0.688308
vn 0.722085 0.069465 -0.688308
vn 0.722085 0.069465 -0.688308
vn 0.722085 0.069465 -0.688308
vn 0.259459 0.965754 -0.000000
vn 0.259459 0.965754 -0.000000
vn 0.259459 0.965754 -0.000000
vn 0.259459 0.965754 -0.000000
vn 0.722084 0.069464 0.688309
vn 0.722084 0.069464 0.688309
vn 0.722084 0.069464 0.688309
vn 0.722084 0.069464 0.688309
vn 0.527858 -0.849333 -0.000000
vn 0.527858 -0.849333 -0.000000
vn 0.527858 -0.849333 -0.000000
vn 0.527858 -0.849333 -0.000000
vn -0.259459 -0.965754 0.000000
vn -0.259459 -0.965754 0.000000
vn -0.259459 -0.965754 0.000000
vn -0.259459 -0.965754 0.000000
vn -0.155757 0.987795 0.000000
vn -0.155757 0.987795 0.000000
vn -0.155757 0.987795 0.000000
vn -0.155757 0.987795 0.000000
vn 0.995405 0.095758 -0.000000
vn 0.995405 0.095758 -0.000000
vn 0.995405 0.095758 -0.000000
vn 0.995405 0.095758 -0.000000
vn 0.155756 -0.987796 -0.000000
vn 0.155756 -0.987796 -0.000000
vn 0.155756 -0.987796 -0.000000
vn 0.155756 -0.987796 -0.000000
vn -0.995405 -0.095758 0.000000
vn -0.995405 -0.095758 0.000000
vn -0.995405 -0.095758 0.000000
vn -0.995405 -0.095758 0.000000
vn 0.000000 0.000000 1.000000
vn 0.000000 0.000000 1.000000
vn 0.000000 0.000000 1.000000
vn 0.000000 0.000000 1.000000
vn -0.000000 0.000000 -1.000000
vn -0.000000 0.000000 -1.000000
vn -0.000000 0.000000 -1.000000
vn -0.000000 0.000000 -1.000000
s off
g mdl_Silla Madera polySurface6
usemtl lambert3SG
f 73/185/201 74/186/202 85/187/203 86/188/204
f 74/189/205 73/190/206 76/191/207 75/192/208
f 75/193/209 76/194/210 87/195/211 88/196/212
f 77/197/213 78/198/214 81/199/215 82/200/216
f 78/201/217 77/202/218 80/203/219 79/204/220
f 79/205/221 80/206/222 84/207/223 83/208/224
f 82/209/225 81/210/226 83/211/227 84/212/228
f 86/213/229 85/214/230 88/215/231 87/216/232
f 74/189/233 75/192/234 80/203/235 77/202/236
f 78/217/237 79/218/238 83/219/239 81/220/240
f 82/209/241 84/212/242 88/215/243 85/214/244
f 86/221/245 87/222/246 76/223/247 73/224/248
f 75/193/249 88/196/250 84/207/251 80/206/252
f 85/187/253 74/186/254 77/197/255 82/200/256
g default
v -0.261042 0.874236 -0.216726
v -0.243674 0.882009 -0.236035
v -0.243674 0.882009 0.236035
v -0.261042 0.874236 0.216726
v -0.207405 0.886127 -0.236035
v -0.188510 0.882472 -0.216726
v -0.188510 0.882472 0.216726
v -0.207405 0.886127 0.236035
v -0.171375 0.754199 -0.216726
v -0.188742 0.746426 -0.236035
v -0.171375 0.754199 0.216726
v -0.188742 0.746426 0.236035
v -0.225012 0.742307 -0.236035
v -0.243906 0.745963 -0.216726
v -0.243906 0.745963 0.216726
v -0.225012 0.742307 0.236035
vt 0.570469 0.502573
vt 0.566204 0.504482
vt 0.561621 0.470175
vt 0.566261 0.471072
vt 0.675880 0.314127
vt 0.671615 0.309385
vt 0.671615 0.202939
vt 0.675880 0.198197
vt 0.578512 0.504482
vt 0.574247 0.502573
vt 0.578455 0.471072
vt 0.583095 0.470175
vt 0.557297 0.505494
vt 0.552657 0.504596
vt 0.548449 0.473095
vt 0.552714 0.471186
vt 0.689427 0.309385
vt 0.684787 0.314127
vt 0.684787 0.198197
vt 0.689427 0.202939
vt 0.592059 0.504596
vt 0.587418 0.505494
vt 0.592002 0.471186
vt 0.596267 0.473095
vt 0.606838 0.157723
vt 0.602572 0.152981
vt 0.602572 0.046536
vt 0.606838 0.041794
vt 0.620384 0.152981
vt 0.615744 0.157723
vt 0.615744 0.041794
vt 0.620384 0.046536
vt 0.836185 0.587629
vt 0.836185 0.481184
vt 0.867686 0.481184
vt 0.867686 0.587629
vt 0.499835 0.435666
vt 0.499835 0.329220
vt 0.531335 0.329220
vt 0.531335 0.435666
vn -0.720473 -0.096247 -0.686772
vn -0.720473 -0.096247 -0.686772
vn -0.720473 -0.096247 -0.686772
vn -0.720473 -0.096247 -0.686772
vn -0.408502 0.912757 0.000000
vn -0.408502 0.912757 0.000000
vn -0.408502 0.912757 0.000000
vn -0.408502 0.912757 0.000000
vn -0.720472 -0.096247 0.686773
vn -0.720472 -0.096247 0.686773
vn -0.720472 -0.096247 0.686773
vn -0.720472 -0.096247 0.686773
vn 0.720473 0.096247 -0.686772
vn 0.720473 0.096247 -0.686772
vn 0.720473 0.096247 -0.686772
vn 0.720473 0.096247 -0.686772
vn 0.189947 0.981794 -0.000000
vn 0.189947 0.981794 -0.000000
vn 0.189947 0.981794 -0.000000
vn 0.189947 0.981794 -0.000000
vn 0.720472 0.096247 0.686773
vn 0.720472 0.096247 0.686773
vn 0.720472 0.096247 0.686773
vn 0.720472 0.096247 0.686773
vn 0.408515 -0.912752 -0.000000
vn 0.408515 -0.912752 -0.000000
vn 0.408515 -0.912752 -0.000000
vn 0.408515 -0.912752 -0.000000
vn -0.189941 -0.981796 0.000000
vn -0.189941 -0.981796 0.000000
vn -0.189941 -0.981796 0.000000
vn -0.189941 -0.981796 0.000000
vn -0.112825 0.993615 0.000000
vn -0.112825 0.993615 0.000000
vn -0.112825 0.993615 0.000000
vn -0.112825 0.993615 0.000000
vn 0.991195 0.132412 -0.000000
vn 0.991195 0.132412 -0.000000
vn 0.991195 0.132412 -0.000000
vn 0.991195 0.132412 -0.000000
vn 0.112820 -0.993615 -0.000000
vn 0.112820 -0.993615 -0.000000
vn 0.112820 -0.993615 -0.000000
vn 0.112820 -0.993615 -0.000000
vn -0.991195 -0.132412 0.000000
vn -0.991195 -0.132412 0.000000
vn -0.991195 -0.132412 0.000000
vn -0.991195 -0.132412 0.000000
vn 0.000000 -0.000001 1.000000
vn 0.000000 -0.000001 1.000000
vn 0.000000 -0.000001 1.000000
vn 0.000000 -0.000001 1.000000
vn -0.000000 0.000000 -1.000000
vn -0.000000 0.000000 -1.000000
vn -0.000000 0.000000 -1.000000
vn -0.000000 0.000000 -1.000000
s off
g mdl_Silla Madera polySurface7
usemtl lambert3SG
f 89/225/257 90/226/258 101/227/259 102/228/260
f 90/229/261 89/230/262 92/231/263 91/232/264
f 91/233/265 92/234/266 103/235/267 104/236/268
f 93/237/269 94/238/270 97/239/271 98/240/272
f 94/241/273 93/242/274 96/243/275 95/244/276
f 95/245/277 96/246/278 100/247/279 99/248/280
f 98/249/281 97/250/282 99/251/283 100/252/284
f 102/253/285 101/254/286 104/255/287 103/256/288
f 90/229/289 91/232/290 96/243/291 93/242/292
f 94/257/293 95/258/294 99/259/295 97/260/296
f 98/249/297 100/252/298 104/255/299 101/254/300
f 102/261/301 103/262/302 92/263/303 89/264/304
f 91/233/305 104/236/306 100/247/307 96/246/308
f 101/227/309 90/226/310 93/237/311 98/240/312
