# This file uses centimeters as units for non-parametric coordinates.

mtllib mdl_Pilar.mtl
g default
v -0.250000 2.523170 -0.200005
v -0.200005 2.523170 -0.250000
v -0.250000 0.207015 -0.200005
v -0.200005 0.207015 -0.250000
v 0.200005 2.523170 -0.250000
v 0.250000 2.523170 -0.200005
v 0.200005 0.207015 -0.250000
v 0.250000 0.207015 -0.200005
v 0.250000 2.523170 0.200005
v 0.200005 2.523170 0.250000
v 0.250000 0.207015 0.200005
v 0.200005 0.207015 0.250000
v -0.200005 2.523170 0.250000
v -0.250000 2.523170 0.200005
v -0.200005 0.207015 0.250000
v -0.250000 0.207015 0.200005
v -0.234279 2.439926 0.332744
v -0.332744 2.439926 0.234278
v 0.234279 2.439926 0.332744
v 0.332744 2.439926 0.234278
v 0.332744 2.439926 -0.234278
v 0.234279 2.439926 -0.332744
v -0.234279 2.439926 -0.332744
v -0.332744 2.439926 -0.234278
v -0.175874 2.716336 0.210442
v -0.220402 2.635578 0.310124
v -0.310124 2.635578 0.220402
v -0.210441 2.716336 0.175874
v 0.176349 2.716336 0.211589
v 0.220402 2.635578 0.310124
v 0.310124 2.635578 0.220402
v 0.211589 2.716336 0.176350
v 0.310124 2.635578 -0.220402
v 0.210441 2.716336 -0.175874
v 0.175874 2.716336 -0.210442
v 0.220402 2.635578 -0.310124
v -0.176349 2.716336 -0.211589
v -0.220402 2.635578 -0.310124
v -0.310124 2.635578 -0.220402
v -0.211589 2.716336 -0.176349
v -0.300000 -0.000000 0.300000
v 0.300000 -0.000000 0.300000
v 0.300000 0.161969 0.300000
v -0.300000 0.161969 0.300000
v -0.300000 0.161969 -0.300000
v 0.300000 0.161969 -0.300000
v 0.300000 -0.000000 -0.300000
v -0.300000 -0.000000 -0.300000
v 0.250000 0.207015 0.250000
v -0.250000 0.207015 0.250000
v -0.250000 0.207015 -0.250000
v 0.250000 0.207015 -0.250000
vt 0.748709 0.699547
vt 0.748709 0.381832
vt 0.803579 0.381832
vt 0.803579 0.699547
vt 0.741851 0.699547
vt 0.741851 0.381832
vt 0.810437 0.699547
vt 0.810437 0.381832
vt 0.817811 0.699547
vt 0.817811 0.381832
vt 0.872681 0.381832
vt 0.872681 0.699547
vt 0.810953 0.699547
vt 0.810953 0.381832
vt 0.879539 0.699547
vt 0.879539 0.381832
vt 0.036197 0.053553
vt 0.102744 0.053689
vt 0.101004 0.078651
vt 0.037872 0.078596
vt 0.116729 0.053718
vt 0.113861 0.079576
vt 0.044171 0.091441
vt 0.094617 0.091567
vt 0.022213 0.053524
vt 0.025028 0.079423
vt 0.102665 0.190775
vt 0.036119 0.190639
vt 0.037858 0.165677
vt 0.100991 0.165731
vt 0.022134 0.190610
vt 0.025002 0.164752
vt 0.044246 0.152761
vt 0.094691 0.152886
vt 0.116650 0.190803
vt 0.113834 0.164904
vt 0.039281 0.273693
vt 0.045875 0.280286
vt 0.041355 0.291199
vt 0.028369 0.278213
vt 0.098629 0.280286
vt 0.103149 0.291199
vt 0.039281 0.220939
vt 0.028369 0.216418
vt 0.105223 0.273693
vt 0.116135 0.278213
vt 0.045875 0.214345
vt 0.041355 0.203433
vt 0.105223 0.220939
vt 0.116135 0.216418
vt 0.098629 0.214345
vt 0.103149 0.203433
vt 0.025015 0.152634
vt 0.039292 0.147353
vt 0.025015 0.091694
vt 0.039127 0.096907
vt 0.099571 0.096975
vt 0.099735 0.147421
vt 0.113848 0.091694
vt 0.113848 0.152634
vt 0.933321 0.687153
vt 0.933321 0.381832
vt 0.986051 0.381832
vt 0.986051 0.687153
vt 0.880055 0.687153
vt 0.880055 0.381832
vt 0.932785 0.381832
vt 0.932785 0.687153
vt 0.011254 0.159076
vt 0.011254 0.085251
vt 0.127609 0.085252
vt 0.127608 0.159076
vt 0.133825 0.346805
vt 0.133825 0.428113
vt 0.112211 0.428113
vt 0.112211 0.346805
vt 0.105659 0.421338
vt 0.105659 0.353580
vt 0.009513 0.428113
vt 0.009513 0.346805
vt 0.031127 0.346805
vt 0.031127 0.428113
vt 0.037679 0.353580
vt 0.037678 0.421338
vt 0.031015 0.324856
vt 0.112323 0.324856
vt 0.112323 0.450062
vt 0.031015 0.450062
vn 0.000000 0.000000 1.000000
vn 0.000000 0.000000 1.000000
vn 0.000000 0.000000 1.000000
vn 0.000000 0.000000 1.000000
vn -1.000000 -0.000000 0.000000
vn -1.000000 -0.000000 0.000000
vn -1.000000 -0.000000 0.000000
vn -1.000000 -0.000000 0.000000
vn 0.000000 0.000000 -1.000000
vn 0.000000 0.000000 -1.000000
vn 0.000000 0.000000 -1.000000
vn 0.000000 0.000000 -1.000000
vn 1.000000 -0.000000 0.000000
vn 1.000000 -0.000000 0.000000
vn 1.000000 -0.000000 0.000000
vn 1.000000 -0.000000 0.000000
vn -0.707109 -0.000000 -0.707104
vn -0.707109 -0.000000 -0.707104
vn -0.707109 -0.000000 -0.707104
vn -0.707109 -0.000000 -0.707104
vn 0.707109 -0.000000 -0.707104
vn 0.707109 -0.000000 -0.707104
vn 0.707109 -0.000000 -0.707104
vn 0.707109 -0.000000 -0.707104
vn 0.707109 -0.000000 0.707104
vn 0.707109 -0.000000 0.707104
vn 0.707109 -0.000000 0.707104
vn 0.707109 -0.000000 0.707104
vn -0.707109 -0.000000 0.707104
vn -0.707109 -0.000000 0.707104
vn -0.707109 -0.000000 0.707104
vn -0.707109 -0.000000 0.707104
vn 0.684802 -0.721840 -0.099964
vn 0.099965 -0.721841 -0.684801
vn 0.099964 -0.721841 -0.684801
vn 0.684802 -0.721840 -0.099964
vn -0.099965 -0.721841 -0.684801
vn -0.099964 -0.721841 -0.684801
vn -0.684802 -0.721840 -0.099964
vn -0.684802 -0.721840 -0.099964
vn -0.684803 -0.721840 0.099964
vn -0.684803 -0.721840 0.099964
vn -0.099966 -0.721841 0.684801
vn -0.099965 -0.721841 0.684801
vn 0.099966 -0.721841 0.684801
vn 0.099965 -0.721841 0.684801
vn 0.684803 -0.721840 0.099964
vn 0.684803 -0.721840 0.099964
vn -0.081529 0.790331 0.607232
vn -0.085305 0.790898 0.605973
vn 0.084309 0.790417 0.606739
vn 0.080290 0.789843 0.608031
vn -0.607234 0.790329 0.081528
vn -0.605975 0.790897 0.085304
vn -0.608032 0.789842 -0.080290
vn -0.606740 0.790416 -0.084310
vn 0.606741 0.790416 0.084309
vn 0.608032 0.789842 0.080291
vn 0.605974 0.790898 -0.085304
vn 0.607233 0.790330 -0.081528
vn 0.085305 0.790899 -0.605972
vn 0.081529 0.790331 -0.607231
vn -0.084309 0.790418 -0.606739
vn -0.080290 0.789843 -0.608030
vn 0.000000 1.000000 0.000001
vn 0.000000 1.000000 0.000001
vn 0.000000 1.000000 0.000001
vn 0.000000 1.000000 0.000001
vn -0.701037 0.130766 0.701033
vn -0.701037 0.130766 0.701033
vn -0.701037 0.130766 0.701033
vn -0.701037 0.130766 0.701033
vn 0.000000 0.114844 0.993384
vn 0.000000 0.114844 0.993384
vn 0.000000 0.114844 0.993384
vn 0.000000 0.114844 0.993384
vn 0.701037 0.130766 0.701033
vn 0.701037 0.130766 0.701033
vn 0.701037 0.130766 0.701033
vn 0.701037 0.130766 0.701033
vn 0.993383 0.114846 0.000000
vn 0.993383 0.114846 0.000000
vn 0.993383 0.114846 0.000000
vn 0.993383 0.114846 0.000000
vn 0.701036 0.130766 -0.701034
vn 0.701036 0.130766 -0.701034
vn 0.701036 0.130766 -0.701034
vn 0.701036 0.130766 -0.701034
vn 0.000000 0.114844 -0.993384
vn 0.000000 0.114844 -0.993384
vn 0.000000 0.114844 -0.993384
vn 0.000000 0.114844 -0.993384
vn -0.701036 0.130766 -0.701034
vn -0.701036 0.130766 -0.701034
vn -0.701036 0.130766 -0.701034
vn -0.701036 0.130766 -0.701034
vn -0.993383 0.114846 0.000000
vn -0.993383 0.114846 0.000000
vn -0.993383 0.114846 0.000000
vn -0.993383 0.114846 0.000000
vn 0.000000 1.000000 0.000000
vn 0.000000 1.000000 0.000000
vn 0.000000 1.000000 -0.000005
vn 0.000000 1.000000 -0.000005
vn 0.000000 0.000000 1.000000
vn 0.000000 0.000000 1.000000
vn 0.000000 0.000000 1.000000
vn 0.000000 0.000000 1.000000
vn 0.000000 0.000000 -1.000000
vn 0.000000 0.000000 -1.000000
vn 0.000000 0.000000 -1.000000
vn 0.000000 0.000000 -1.000000
vn 1.000000 0.000000 0.000000
vn 1.000000 0.000000 0.000000
vn 1.000000 0.000000 0.000000
vn 1.000000 0.000000 0.000000
vn -1.000000 0.000000 0.000000
vn -1.000000 0.000000 0.000000
vn -1.000000 0.000000 0.000000
vn -1.000000 0.000000 0.000000
vn 0.000000 0.742956 0.669340
vn 0.000000 0.742956 0.669340
vn 0.000000 0.742956 0.669340
vn 0.000000 0.742956 0.669340
vn 0.000000 0.742956 -0.669340
vn 0.000000 0.742956 -0.669340
vn 0.000000 0.742956 -0.669340
vn 0.000000 0.742956 -0.669340
vn 0.669341 0.742955 0.000000
vn 0.669341 0.742955 0.000000
vn 0.669341 0.742955 0.000000
vn 0.669341 0.742955 0.000000
vn -0.669341 0.742955 0.000000
vn -0.669341 0.742955 0.000000
vn -0.669341 0.742955 0.000000
vn -0.669341 0.742955 0.000000
vn 0.000000 1.000000 0.000000
vn 0.000000 1.000000 0.000000
vn 0.000000 1.000000 0.000000
vn 0.000000 1.000000 0.000000
s off
g mdl_Pilar
usemtl initialShadingGroup
f 13/61/1 15/62/2 12/63/3 10/64/4
f 1/1/5 3/2/6 16/3/7 14/4/8
f 4/65/9 2/66/10 5/67/11 7/68/12
f 9/9/13 11/10/14 8/11/15 6/12/16
f 1/1/17 2/5/18 4/6/19 3/2/20
f 5/15/21 6/12/22 8/11/23 7/16/24
f 9/9/25 10/13/26 12/14/27 11/10/28
f 13/7/29 14/4/30 16/3/31 15/8/32
s 1
f 14/37/33 13/38/34 17/39/35 18/40/36
f 13/38/34 10/41/37 19/42/38 17/39/35
f 10/41/37 9/45/39 20/46/40 19/42/38
f 9/45/39 6/49/41 21/50/42 20/46/40
f 6/49/41 5/51/43 22/52/44 21/50/42
f 5/51/43 2/47/45 23/48/46 22/52/44
f 2/47/45 1/43/47 24/44/48 23/48/46
f 1/43/47 14/37/33 18/40/36 24/44/48
s 2
f 25/54/49 26/53/50 30/55/51 29/56/52
f 26/53/50 25/54/49 28/33/53 27/29/54
f 27/29/54 28/33/53 40/34/55 39/30/56
f 29/56/52 30/55/51 31/20/57 32/23/58
f 32/23/58 31/20/57 33/19/59 34/24/60
f 34/24/60 33/19/59 36/59/61 35/57/62
f 35/57/62 36/59/61 38/60/63 37/58/64
f 37/58/64 38/60/63 39/30/56 40/34/55
s 3
f 28/33/65 32/23/66 34/24/67 40/34/68
s off
f 18/28/69 17/31/70 26/32/71 27/29/72
f 17/69/73 19/70/74 30/55/75 26/53/76
f 19/25/77 20/17/78 31/20/79 30/26/80
f 20/17/81 21/18/82 33/19/83 31/20/84
f 21/18/85 22/21/86 36/22/87 33/19/88
f 22/71/89 23/72/90 38/60/91 36/59/92
f 23/35/93 24/27/94 39/30/95 38/36/96
f 24/27/97 18/28/98 27/29/99 39/30/100
s 3
f 28/33/65 25/54/101 29/56/102 32/23/66
f 40/34/68 34/24/67 35/57/103 37/58/104
s off
f 41/85/105 42/86/106 43/76/107 44/81/108
f 45/82/109 46/75/110 47/87/111 48/88/112
f 42/73/113 47/74/114 46/75/115 43/76/116
f 48/79/117 41/80/118 44/81/119 45/82/120
f 49/78/121 50/83/122 44/81/123 43/76/124
f 51/84/125 52/77/126 46/75/127 45/82/128
f 52/77/129 49/78/130 43/76/131 46/75/132
f 50/83/133 51/84/134 45/82/135 44/81/136
f 50/83/137 49/78/138 52/77/139 51/84/140
